<svg xmlns="http://www.w3.org/2000/svg" viewBox="0 0 23 28" width="34.5px" height="42px"><defs><style>.cls-1{fill:#fff;}.cls-2{fill:#b49bda;}.cls-3{fill:#16111a;}</style></defs><title>p_stops</title><g id="Mono"><path class="cls-1" d="M23,11.5A11.5,11.5,0,1,0,7.89258,22.41431L11.5,28l3.60742-5.58569A11.499,11.499,0,0,0,23,11.5Z"/><circle class="cls-2" cx="11.5" cy="11.5" r="10.5"/><path class="cls-3" d="M18.47566,17.938H17.07292a.32062.32062,0,0,0,.24314-.318v-.74813h.16832a.8502.8502,0,0,0,.84165-.84164V13.05641h.187a.36788.36788,0,0,0,.35536-.35536V10.438a.476.476,0,0,0-.41147-.35536h-.187V8.86689a.6361.6361,0,0,0-.01871-.187v-.0561c0-.692-2.18828-1.27182-4.86284-1.27182s-4.86284.5798-4.86284,1.27182v.0561a.63643.63643,0,0,0-.0187.187V10.0826h-.187a.36788.36788,0,0,0-.35536.35536v2.2818a.36788.36788,0,0,0,.35536.35536h.187v2.97382a.8502.8502,0,0,0,.84164.84165H9.5168v.74813a.32062.32062,0,0,0,.24314.31795H6.74872V7.85693a2.098,2.098,0,0,0,1.7207-2.03866,2.0388,2.0388,0,1,0-2.3566,2.03866V17.95667H4.54176a.41148.41148,0,1,0,0,.823H18.457a.41513.41513,0,0,0,.41148-.41147A.3936.3936,0,0,0,18.47566,17.938ZM11.44324,7.89433h3.92768a.35537.35537,0,0,1,0,.71073H11.44324a.36788.36788,0,0,1-.35536-.35537A.35512.35512,0,0,1,11.44324,7.89433ZM9.51681,13.43048v-3.591a.62269.62269,0,0,1,.61721-.61721h6.50872a.62269.62269,0,0,1,.6172.61721v3.591a.6107.6107,0,0,1-.6172.6172H10.134A.62269.62269,0,0,1,9.51681,13.43048Zm.78554,2.63715a.59851.59851,0,1,1,.5985-.59851A.60265.60265,0,0,1,10.30235,16.06763Zm.44888,1.87032a.43785.43785,0,0,0,.318-.28055,1.62283,1.62283,0,0,0,.09351-.52369v-.26185h4.48878v.26185a1.24047,1.24047,0,0,0,.09351.52369.47872.47872,0,0,0,.318.28055Zm5.72318-1.87032a.59851.59851,0,1,1,.59851-.59851A.60265.60265,0,0,1,16.47441,16.06763Z"/></g></svg>
