<svg xmlns="http://www.w3.org/2000/svg" xmlns:xlink="http://www.w3.org/1999/xlink" width="65.666" height="82.689" viewBox="0 0 65.666 82.689"><defs><filter id="a" x="0" y="0" width="65.666" height="82.689" filterUnits="userSpaceOnUse"><feOffset input="SourceAlpha"/><feGaussianBlur stdDeviation="4" result="b"/><feFlood/><feComposite operator="in" in2="b"/><feComposite in="SourceGraphic"/></filter></defs><g transform="translate(-12362.333 -19346.922)"><ellipse cx="11.249" cy="2" rx="11.249" ry="2" transform="translate(12383.917 19418.611)" fill="rgba(0,0,0,0.7)"/><path d="M-26275.7-26950.01a20.981,20.981,0,0,1,20.352-16.9,20.435,20.435,0,0,1,2.232.121,21.214,21.214,0,0,1,18.625,21.318c-.006,9.244-5.766,17.441-20.838,37.25C-26271.982-26928.568-26277.953-26939.3-26275.7-26950.01Zm9.184-9.541a18.288,18.288,0,0,0-3.986,4.6,18.923,18.923,0,0,0-2.328,5.908c-.986,4.7-.127,9.387,2.789,15.2,2.693,5.365,7.127,11.748,14.66,21.066,5.928-7.809,10.691-14.252,13.678-19.348a36.55,36.55,0,0,0,3.289-6.992,18.935,18.935,0,0,0,.986-6,18.755,18.755,0,0,0-4.6-12.379,17.72,17.72,0,0,0-11.4-6,18.366,18.366,0,0,0-1.914-.1A17.6,17.6,0,0,0-26266.516-26959.551Z" transform="translate(38650.488 46325.836)" fill="#fff"/><g transform="matrix(1, 0, 0, 1, 12362.33, 19346.92)" filter="url(#a)"><path d="M-26275.7-26950.01a20.981,20.981,0,0,1,20.352-16.9,20.435,20.435,0,0,1,2.232.121,21.214,21.214,0,0,1,18.625,21.318c-.006,9.244-5.766,17.441-20.838,37.25C-26271.982-26928.568-26277.953-26939.3-26275.7-26950.01Z" transform="translate(26288.16 26978.91)" fill="#fff"/></g><path d="M20.776,54.14h0C13.22,44.794,8.836,38.494,6.115,33.074c-2.916-5.814-3.776-10.5-2.789-15.2a18.931,18.931,0,0,1,2.328-5.909,18.3,18.3,0,0,1,3.986-4.6A17.588,17.588,0,0,1,20.809,3.315a18.222,18.222,0,0,1,1.913.1,17.725,17.725,0,0,1,11.4,6,18.76,18.76,0,0,1,4.6,12.379,18.953,18.953,0,0,1-.986,6,36.545,36.545,0,0,1-3.289,6.992c-2.845,4.856-7.343,11-13.677,19.346Z" transform="translate(12374.398 19358.539)" fill="#b49bda"/><circle cx="7" cy="7" r="7" transform="translate(12388.166 19373.234)" fill="#8154c0"/></g></svg>